<svg width="594" height="103" viewBox="0 0 594 103" fill="none" xmlns="http://www.w3.org/2000/svg">
<path d="M51.4604 0C44.7026 0 38.0107 1.33223 31.7672 3.92018C25.5238 6.50842 19.8511 10.3018 15.0723 15.0839C10.2938 19.8663 6.50342 25.5434 3.91716 31.7917C1.33121 38.04 0 44.737 0 51.5C0 58.263 1.33121 64.96 3.91716 71.2083C6.50342 77.4566 10.2938 83.1336 15.0723 87.9161C19.8511 92.6982 25.5238 96.4916 31.7672 99.0798C38.0107 101.668 44.7026 103 51.4604 103V77.25C48.0814 77.25 44.7356 76.584 41.6138 75.2898C38.4921 73.9958 35.6556 72.0991 33.2664 69.708C30.8771 67.317 28.9819 64.4783 27.6889 61.3542C26.3957 58.23 25.7302 54.8816 25.7302 51.5C25.7302 48.1184 26.3957 44.77 27.6889 41.6458C28.9819 38.5217 30.8771 35.683 33.2664 33.292C35.6556 30.9009 38.4921 29.0042 41.6138 27.7102C44.7356 26.416 48.0814 25.75 51.4604 25.75V0Z" fill="#0F52FF"/>
<path d="M51.461 68.6666C60.9347 68.6666 68.6144 60.9811 68.6144 51.5001C68.6144 42.0191 60.9347 34.3335 51.461 34.3335C41.9873 34.3335 34.3076 42.0191 34.3076 51.5001C34.3076 60.9811 41.9873 68.6666 51.461 68.6666Z" fill="#0F52FF"/>
<path d="M0 51.5C0 58.263 1.33121 64.96 3.91716 71.2083C6.50342 77.4566 10.2938 83.1337 15.0723 87.9161C19.8511 92.6982 25.5238 96.4916 31.7672 99.0798C38.0107 101.668 44.7026 103 51.4604 103C58.2182 103 64.9101 101.668 71.1536 99.0798C77.397 96.4916 83.0697 92.6982 87.8485 87.9161C92.6269 83.1337 96.4174 77.4566 99.0036 71.2083C101.59 64.96 102.921 58.263 102.921 51.5H77.1906C77.1906 54.8816 76.5251 58.23 75.2319 61.3542C73.9389 64.4783 72.0437 67.317 69.6544 69.708C67.2652 72.0991 64.4287 73.9958 61.307 75.2898C58.1852 76.584 54.8394 77.25 51.4604 77.25C48.0814 77.25 44.7356 76.584 41.6138 75.2898C38.4921 73.9958 35.6556 72.0991 33.2664 69.708C30.8771 67.317 28.9819 64.4783 27.6889 61.3542C26.3957 58.23 25.7302 54.8816 25.7302 51.5H0Z" fill="#00B3FF"/>
<path d="M68.6146 51.4999C68.6146 46.947 66.8074 42.5807 63.5906 39.3612C60.3736 36.1417 56.0107 34.333 51.4613 34.333C46.9119 34.333 42.5489 36.1417 39.3319 39.3612C36.1149 42.5807 34.3076 46.947 34.3076 51.4999H51.4613H68.6146Z" fill="#5BD0F4"/>
<path d="M137.786 75.7904H126.445L143.725 26.3665H157.363L174.618 75.7904H163.278L150.74 37.6606H150.349L137.786 75.7904ZM137.077 56.3635H163.864V64.5204H137.077V56.3635Z" fill="#00B3FF"/>
<path d="M192.534 76.3937C189.682 76.3937 187.099 75.6697 184.786 74.2218C182.488 72.7577 180.663 70.6099 179.311 67.7783C177.975 64.9307 177.307 61.4395 177.307 57.3047C177.307 53.0573 177.999 49.5259 179.384 46.7104C180.769 43.8788 182.611 41.7632 184.908 40.3635C187.222 38.9477 189.755 38.2398 192.509 38.2398C194.611 38.2398 196.363 38.5938 197.764 39.3017C199.181 39.9935 200.322 40.8623 201.186 41.908C202.065 42.9377 202.734 43.9512 203.19 44.9487H203.507V26.3665H213.895V75.7904H203.63V69.8537H203.19C202.701 70.8834 202.008 71.905 201.112 72.9186C200.232 73.9161 199.084 74.7447 197.666 75.4043C196.265 76.0639 194.554 76.3937 192.534 76.3937ZM195.833 68.2127C197.511 68.2127 198.929 67.7622 200.086 66.8613C201.259 65.9442 202.155 64.6652 202.774 63.0242C203.41 61.3831 203.727 59.4606 203.727 57.2564C203.727 55.0523 203.418 53.1378 202.799 51.5128C202.18 49.8879 201.283 48.633 200.11 47.7481C198.937 46.8633 197.511 46.4208 195.833 46.4208C194.122 46.4208 192.68 46.8794 191.507 47.7964C190.334 48.7134 189.446 49.9844 188.843 51.6094C188.24 53.2343 187.939 55.1167 187.939 57.2564C187.939 59.4123 188.24 61.3188 188.843 62.9759C189.462 64.6169 190.35 65.904 191.507 66.8372C192.68 67.7542 194.122 68.2127 195.833 68.2127Z" fill="#00B3FF"/>
<path d="M236.289 76.3937C233.437 76.3937 230.855 75.6697 228.541 74.2218C226.244 72.7577 224.419 70.6099 223.066 67.7783C221.73 64.9307 221.062 61.4395 221.062 57.3047C221.062 53.0573 221.755 49.5259 223.14 46.7104C224.525 43.8788 226.366 41.7632 228.663 40.3635C230.977 38.9477 233.511 38.2398 236.264 38.2398C238.366 38.2398 240.118 38.5938 241.519 39.3017C242.937 39.9935 244.077 40.8623 244.941 41.908C245.821 42.9377 246.489 43.9512 246.945 44.9487H247.263V26.3665H257.65V75.7904H247.385V69.8537H246.945C246.456 70.8834 245.764 71.905 244.868 72.9186C243.988 73.9161 242.839 74.7447 241.421 75.4043C240.02 76.0639 238.309 76.3937 236.289 76.3937ZM239.588 68.2127C241.267 68.2127 242.684 67.7622 243.841 66.8613C245.014 65.9442 245.91 64.6652 246.53 63.0242C247.165 61.3831 247.483 59.4606 247.483 57.2564C247.483 55.0523 247.173 53.1378 246.554 51.5128C245.935 49.8879 245.039 48.633 243.866 47.7481C242.692 46.8633 241.267 46.4208 239.588 46.4208C237.877 46.4208 236.435 46.8794 235.262 47.7964C234.089 48.7134 233.201 49.9844 232.598 51.6094C231.995 53.2343 231.694 55.1167 231.694 57.2564C231.694 59.4123 231.995 61.3188 232.598 62.9759C233.217 64.6169 234.105 65.904 235.262 66.8372C236.435 67.7542 237.877 68.2127 239.588 68.2127Z" fill="#00B3FF"/>
<path d="M289.601 51.4163V59.5732H266.773V51.4163H289.601Z" fill="#00B3FF"/>
<path d="M316.412 75.7904H298.668V26.3665H316.559C321.594 26.3665 325.928 27.3559 329.561 29.3348C333.195 31.2976 335.989 34.1212 337.945 37.8054C339.916 41.4897 340.902 45.898 340.902 51.0302C340.902 56.1785 339.916 60.6029 337.945 64.3032C335.989 68.0036 333.179 70.8432 329.513 72.8221C325.863 74.801 321.496 75.7904 316.412 75.7904ZM309.251 66.8372H315.972C319.101 66.8372 321.732 66.2901 323.867 65.1961C326.017 64.086 327.631 62.3726 328.706 60.0558C329.798 57.723 330.344 54.7145 330.344 51.0302C330.344 47.3781 329.798 44.3937 328.706 42.0769C327.631 39.7602 326.026 38.0548 323.891 36.9608C321.757 35.8668 319.125 35.3198 315.997 35.3198H309.251V66.8372Z" fill="#00B3FF"/>
<path d="M372.62 60.0076V38.7225H383.032V75.7904H373.036V69.0574H372.645C371.797 71.2293 370.388 72.9749 368.416 74.2942C366.461 75.6134 364.074 76.2731 361.255 76.2731C358.746 76.2731 356.538 75.71 354.632 74.5838C352.725 73.4576 351.234 71.8568 350.159 69.7814C349.1 67.7059 348.562 65.2203 348.546 62.3243V38.7225H358.958V60.4902C358.974 62.6783 359.569 64.4078 360.742 65.6788C361.915 66.9498 363.487 67.5853 365.459 67.5853C366.714 67.5853 367.887 67.3037 368.978 66.7406C370.07 66.1614 370.95 65.3087 371.618 64.1825C372.302 63.0564 372.636 61.6647 372.62 60.0076Z" fill="#00B3FF"/>
<path d="M408.322 76.5144C404.477 76.5144 401.169 75.71 398.399 74.1011C395.646 72.4762 393.527 70.2238 392.045 67.3439C390.578 64.4641 389.845 61.1499 389.845 57.4012C389.845 53.6044 390.586 50.274 392.069 47.4103C393.568 44.5304 395.694 42.2861 398.448 40.6772C401.202 39.0523 404.477 38.2398 408.273 38.2398C411.548 38.2398 414.416 38.8271 416.877 40.0015C419.337 41.176 421.284 42.8251 422.718 44.9487C424.152 47.0724 424.942 49.5661 425.089 52.4299H415.263C414.986 50.5797 414.253 49.0915 413.064 47.9653C411.891 46.823 410.351 46.2519 408.444 46.2519C406.831 46.2519 405.422 46.6863 404.216 47.5551C403.027 48.4078 402.098 49.6546 401.43 51.2957C400.762 52.9367 400.428 54.9236 400.428 57.2564C400.428 59.6215 400.754 61.6325 401.405 63.2896C402.073 64.9468 403.01 66.2097 404.216 67.0785C405.422 67.9473 406.831 68.3817 408.444 68.3817C409.634 68.3817 410.701 68.1403 411.646 67.6577C412.608 67.175 413.398 66.4752 414.017 65.5581C414.652 64.625 415.068 63.5068 415.263 62.2037H425.089C424.926 65.0352 424.144 67.529 422.742 69.6848C421.357 71.8246 419.443 73.4978 416.999 74.7044C414.555 75.9111 411.662 76.5144 408.322 76.5144Z" fill="#00B3FF"/>
<path d="M442.46 76.4903C440.065 76.4903 437.93 76.08 436.057 75.2595C434.183 74.4229 432.7 73.1921 431.608 71.5672C430.533 69.9261 429.995 67.8829 429.995 65.4375C429.995 63.3781 430.378 61.6486 431.144 60.2489C431.91 58.8492 432.953 57.723 434.272 56.8703C435.592 56.0176 437.091 55.3741 438.769 54.9397C440.464 54.5053 442.24 54.1996 444.098 54.0227C446.281 53.7974 448.041 53.5883 449.377 53.3952C450.713 53.1861 451.682 52.8804 452.285 52.4782C452.888 52.0759 453.19 51.4807 453.19 50.6923V50.5475C453.19 49.0191 452.701 47.8366 451.723 47C450.762 46.1634 449.393 45.7451 447.617 45.7451C445.743 45.7451 444.252 46.1554 443.144 46.9759C442.036 47.7803 441.303 48.7939 440.945 50.0166L431.315 49.2444C431.804 46.992 432.765 45.0453 434.199 43.4042C435.633 41.7471 437.482 40.4761 439.747 39.5913C442.028 38.6903 444.668 38.2398 447.666 38.2398C449.752 38.2398 451.748 38.4812 453.654 38.9638C455.577 39.4465 457.279 40.1946 458.762 41.2082C460.261 42.2217 461.442 43.5249 462.306 45.1177C463.17 46.6943 463.601 48.5847 463.601 50.7889V75.7904H453.727V70.6501H453.434C452.831 71.8085 452.025 72.8301 451.014 73.715C450.004 74.5838 448.79 75.2675 447.373 75.7663C445.955 76.2489 444.318 76.4903 442.46 76.4903ZM445.442 69.3952C446.973 69.3952 448.326 69.0976 449.499 68.5023C450.672 67.891 451.593 67.0704 452.261 66.0408C452.929 65.0111 453.263 63.8447 453.263 62.5415V58.6079C452.937 58.817 452.489 59.0101 451.919 59.1871C451.365 59.348 450.737 59.5008 450.037 59.6456C449.336 59.7743 448.635 59.895 447.935 60.0076C447.234 60.1041 446.599 60.1926 446.028 60.273C444.806 60.45 443.739 60.7316 442.827 61.1177C441.914 61.5038 441.205 62.0267 440.7 62.6863C440.195 63.3299 439.943 64.1343 439.943 65.0996C439.943 66.4993 440.456 67.5692 441.482 68.3093C442.525 69.0332 443.845 69.3952 445.442 69.3952Z" fill="#00B3FF"/>
<path d="M491.647 38.7225V46.445H469.04V38.7225H491.647ZM474.172 29.8416H484.584V64.3997C484.584 65.349 484.731 66.089 485.024 66.62C485.317 67.1348 485.725 67.4968 486.246 67.7059C486.784 67.9151 487.403 68.0197 488.103 68.0197C488.592 68.0197 489.081 67.9794 489.57 67.899C490.059 67.8025 490.433 67.7301 490.694 67.6818L492.332 75.3319C491.81 75.4928 491.077 75.6778 490.132 75.8869C489.187 76.1122 488.038 76.2489 486.686 76.2972C484.177 76.3937 481.977 76.0639 480.087 75.3078C478.213 74.5516 476.755 73.3771 475.712 71.7844C474.669 70.1916 474.156 68.1805 474.172 65.7512V29.8416Z" fill="#00B3FF"/>
<path d="M498.43 75.7904V38.7225H508.842V75.7904H498.43ZM503.66 33.9442C502.112 33.9442 500.784 33.4374 499.676 32.4238C498.584 31.3942 498.039 30.1634 498.039 28.7315C498.039 27.3157 498.584 26.101 499.676 25.0875C500.784 24.0578 502.112 23.543 503.66 23.543C505.208 23.543 506.528 24.0578 507.619 25.0875C508.727 26.101 509.281 27.3157 509.281 28.7315C509.281 30.1634 508.727 31.3942 507.619 32.4238C506.528 33.4374 505.208 33.9442 503.66 33.9442Z" fill="#00B3FF"/>
<path d="M534.144 76.5144C530.347 76.5144 527.064 75.718 524.294 74.1253C521.541 72.5164 519.414 70.2801 517.915 67.4163C516.416 64.5365 515.667 61.1981 515.667 57.4012C515.667 53.5722 516.416 50.2258 517.915 47.362C519.414 44.4822 521.541 42.2459 524.294 40.6531C527.064 39.0443 530.347 38.2398 534.144 38.2398C537.94 38.2398 541.216 39.0443 543.969 40.6531C546.739 42.2459 548.874 44.4822 550.373 47.362C551.872 50.2258 552.621 53.5722 552.621 57.4012C552.621 61.1981 551.872 64.5365 550.373 67.4163C548.874 70.2801 546.739 72.5164 543.969 74.1253C541.216 75.718 537.94 76.5144 534.144 76.5144ZM534.193 68.5506C535.92 68.5506 537.362 68.0679 538.519 67.1026C539.676 66.1212 540.547 64.7859 541.134 63.0966C541.737 61.4073 542.038 59.4847 542.038 57.3288C542.038 55.173 541.737 53.2504 541.134 51.5611C540.547 49.8718 539.676 48.5365 538.519 47.5551C537.362 46.5737 535.92 46.083 534.193 46.083C532.449 46.083 530.983 46.5737 529.794 47.5551C528.62 48.5365 527.732 49.8718 527.129 51.5611C526.543 53.2504 526.25 55.173 526.25 57.3288C526.25 59.4847 526.543 61.4073 527.129 63.0966C527.732 64.7859 528.62 66.1212 529.794 67.1026C530.983 68.0679 532.449 68.5506 534.193 68.5506Z" fill="#00B3FF"/>
<path d="M569.803 54.3605V75.7904H559.391V38.7225H569.314V45.2625H569.754C570.585 43.1066 571.978 41.4012 573.934 40.1463C575.889 38.8753 578.26 38.2398 581.046 38.2398C583.653 38.2398 585.926 38.8029 587.865 39.9291C589.804 41.0553 591.311 42.6642 592.387 44.7557C593.462 46.8311 594 49.3087 594 52.1886V75.7904H583.588V54.0227C583.604 51.7542 583.018 49.9844 581.828 48.7134C580.639 47.4264 579.001 46.7828 576.916 46.7828C575.514 46.7828 574.276 47.0805 573.201 47.6757C572.141 48.271 571.31 49.1398 570.708 50.2821C570.121 51.4083 569.82 52.7678 569.803 54.3605Z" fill="#00B3FF"/>
</svg>
